<?xml version="1.0" encoding="utf-8"?>
<!-- Generator: Adobe Illustrator 22.0.1, SVG Export Plug-In . SVG Version: 6.00 Build 0)  -->
<svg version="1.1" id="Layer_1" xmlns="http://www.w3.org/2000/svg" xmlns:xlink="http://www.w3.org/1999/xlink" x="0px" y="0px"
	 viewBox="0 0 159.9 21.8" style="enable-background:new 0 0 159.9 21.8;" xml:space="preserve">
<style type="text/css">
	.st0{fill:#020202;}
</style>
<path class="st0" d="M157.3,15.4c-0.5-1-1.4-1.7-2.5-1.7c-0.3,0-1.1,0-1.7,0.4c0.4-0.7,1.6-1.9,3.2-2.9l1.1,0.9v3.3H157.3z M159,8.3
	c-0.6,1.1-1.9,2.1-2.7,2.7l-1-0.8V7c0.4,0.9,1.2,1.6,2.2,1.6C158.1,8.6,158.5,8.5,159,8.3 M159.9,10.9l-1.7-1.3
	c1.2-1,1.6-2.3,1.6-3.2c0-0.1,0-0.4,0-0.6h-0.1c-0.2,0.5-0.6,0.9-1.3,0.9s-1.1-0.4-1.5-0.9l-4,2.2v3.2l1.5,1.2
	c-1.5,1.4-1.8,2.2-1.8,3c0,0.8,0.5,1.5,1.2,1.8l0.1-0.1c-0.2-0.2-0.4-0.3-0.4-0.7c0-0.3,0.3-0.8,1-0.8c0.9,0,1.4,0.6,1.7,0.9
	l3.8-2.3v-3.3H159.9z M147.5,11.8V7.3l2,3.1L147.5,11.8z M152,13.4l-2.1,1.6l-2.4-1.9V12l4.1-2.9l-2.1-3.2L145,8.4v6l3.1,2.3
	L152,13.4L152,13.4z M144.4,14.7l-0.6,0.4l-1-1v-6l0.8-0.6l-0.1-0.1L142.8,8l-2.2-1.9L138.2,8l-2.1-1.9L133.7,8L132,5.9l-2.6,1.8
	l0.1,0.2l0.6-0.4l0.9,1.1v5.8l-0.7,0.7l2.1,1.7l2-1.8l-0.8-0.8V8l0.5-0.4l1.5,1.3v5.4L135,15l2.1,1.7l2-1.8l-0.8-0.8V8l0.5-0.4
	l1.5,1.3v5.3l-0.6,0.6l2.1,1.9l2.8-1.9L144.4,14.7z M129.9,14.8l-0.7,0.5l-0.9-0.9V8.1l0.8-0.6L129,7.3l-0.7,0.5l-1.6-1.9l-2.6,1.8
	l0.1,0.2l0.6-0.4l0.9,1.1v5.8l-1.2,0.9l0.1,0.1l0.6-0.4l2,1.9l2.7-1.8L129.9,14.8z M127,1.6l-1.9,1.6l1.6,1.8l1.9-1.6L127,1.6z
	 M116.6,12.3l-1.1,0.5c-0.6-0.8-1.1-2-1.1-3.6c0-0.6,0.1-1.5,0.3-2.1l1.9-0.8L116.6,12.3z M124.3,2.2c0-1.8-1.7-2.3-3.1-2.2v0.2
	c0.8,0.1,1.5,0.4,1.5,1c0,0.4-0.3,0.9-1.1,0.9c-0.7,0-1.8-0.4-2.8-0.7c-1.1-0.4-2.2-0.8-3.1-0.8c-1.8,0-3.1,1.3-3.1,2.9
	c0,1.3,1,1.8,1.4,1.9V5.3c-0.3-0.2-0.4-0.4-0.4-0.9s0.3-1.1,1.2-1.1c0.8,0,1.9,0.4,3.3,0.8c1.2,0.3,2.5,0.7,3.3,0.8v2.9l-1.4,1
	l1.4,1.2v3.9c-0.7,0.4-1.5,0.5-2.2,0.5c-1.3,0-2.5-0.4-3.5-1.5l3.7-1.8V5l-4.5,2c0.5-1.2,1.4-2.1,2.3-2.7V4.2
	c-2.7,0.7-5.1,3.2-5.1,6.3c0,3.7,2.9,6.4,6.3,6.4c3.7,0,5.8-2.9,5.8-5.9H124c-0.5,1.2-1.4,2.3-2.4,2.8V10l1.4-1.2l-1.4-1.2V4.8
	C122.9,4.8,124.3,3.9,124.3,2.2 M104.3,14.8l-0.7,0.5l-0.9-0.9v-14l-3.4,2.3c0.4,0.1,0.9,0.3,0.9,1.2v10.3L99,15.1l0.1,0.1l0.6-0.4
	l2,1.9l2.7-1.8L104.3,14.8z M109.8,14.6l-0.8,0.5l-4.5-6.8l0.2-0.3c0.5,0.3,0.9,0.7,1.9,0.7c0.9,0,2.2-1,2.3-2.8
	c-0.2,0.3-0.7,0.7-1.5,0.7c-0.6,0-1.1-0.4-1.5-0.7l-3.1,4.6l4.1,6.3l3-2L109.8,14.6z M99.4,6.1c-0.3,0.2-0.6,0.4-1,0.4
	c-0.3,0-0.8-0.2-1-0.5l-1.6,1.8L94.2,6l-2.7,1.9l0.1,0.2l0.7-0.5l1,1.1v5.8l-1.2,0.9l0.1,0.1l0.6-0.4L95,17l2.8-1.8l-0.1-0.1
	L97,15.5l-1.1-1V7.9c0.5,0.5,1,0.9,1.6,0.9C98.5,8.8,99.3,7.4,99.4,6.1 M86.3,13.6V7.3l2.2,1.6v6.4L86.3,13.6z M86.6,16.7L91,14V8
	l-2.8-2.1l-4.4,2.5v5.9L82.9,15l0.1,0.1l0.7-0.6L86.6,16.7z M79,14.3c0,0.7-0.4,1.5-1.3,1.5c-0.2,0-0.5,0-0.6,0v-5.7
	c0.2-0.2,0.5-0.5,1-0.5s0.7,0.2,1,0.5L79,14.3L79,14.3z M79,9.9c-0.2-0.2-0.5-0.4-1-0.4s-0.8,0.2-1,0.4V8c0.2,0.2,0.5,0.4,1,0.4
	s0.8-0.2,1-0.4V9.9z M79,7.8c-0.2,0.3-0.5,0.5-1,0.5S77.2,8,77,7.8V3.3l0.6-0.5L79,3.9V7.8z M82.7,1.9l-0.9,0.8l-2-1.8L77,3.1V1
	h-0.2v14.8c-0.3,0-0.9-0.2-1.6-0.3V3.1C75.2,2.2,74.6,1,73,1c-1.7,0-2.6,1.4-2.6,2.5h0.1c0.1-0.5,0.5-1,1-1c0.6,0,1,0.3,1,1.5v3.5
	c-1.5,0.1-2.5,1-2.5,2c0,0.6,0.4,1.7,1.5,1.7v-0.1c-0.4-0.2-0.5-0.4-0.5-0.6c0-0.5,0.5-0.7,1.2-0.7h0.2v5.7
	c-1.3,0.5-1.9,1.3-1.9,2.4c0,1.5,1.2,2.7,3,2.7c1.2,0,2.1-0.2,3.3-0.5c0.9-0.2,1.9-0.4,2.5-0.4c0.7,0,1,0.3,1,0.8
	c0,0.6-0.2,0.9-0.6,1.1v0.1c1.5-0.3,2.3-1.1,2.3-2.5S80.7,17,79.2,17c-0.8,0-2.1,0.2-3.3,0.5c-1.2,0.3-2.3,0.4-2.7,0.4
	c-0.6,0-1.4-0.3-1.4-1.1c0-0.8,0.6-1.4,2.2-1.4c0.8,0,1.7,0.1,2.7,0.4c1.1,0.2,1.9,0.6,2.8,0.6c1.3,0,2.4-0.5,2.4-2.4V2.9l1-0.9
	L82.7,1.9z M66.8,7l-0.6,0.5L64.5,6l-2,1.8l0.8,0.8v6.7l-2-1.4V8.4L62,7.9l-2.1-2l-2,1.8l0.8,0.8V15l-0.1,0.1l-1.9-1.4V8.4
	c0-1.2-0.6-1.6-1.4-2.1c-0.7-0.4-1-0.8-1-1.4c0-0.7,0.6-1,0.8-1.1c-0.7,0-2.6,0.7-2.6,2.4c0,0.9,0.4,1.3,0.9,1.7s0.9,0.8,0.9,1.6
	v5.2l-0.9,0.7l0.1,0.1l0.9-0.7l2.3,1.9l2.2-1.5l2.4,1.5l4.7-2.8v-6l1.1-0.8L66.8,7z M48.3,11.8V7.3l2,3.1L48.3,11.8z M48.9,16.7
	l3.9-3.2l-0.1-0.2L50.6,15l-2.4-1.9V12l4.1-2.9l-2.1-3.2l-4.5,2.5v5.9L44.9,15l0.1,0.1l0.8-0.7L48.9,16.7z M46.4,1.4
	c0-0.3-0.1-0.5-0.2-0.8h-0.1c-0.3,0.8-0.6,1.2-1.5,1.2c-0.8,0-1.4-0.5-1.7-0.8l-2.6,3h0.3l0.7-0.8c0.6,0.4,1.1,0.9,2.3,0.9v7.5
	l-5.3-9.2c-0.4-0.7-1.1-1.7-2.3-1.7c-1.4,0-2.5,1.2-2.3,3.3h0.1c0.1-0.5,0.4-1.2,1-1.2c0.5,0,0.9,0.5,1.1,0.9v2.9
	c-1.6,0-2.6,0.8-2.6,2c0,0.5,0.4,1.7,1.5,1.9v-0.1c-0.2-0.2-0.3-0.3-0.3-0.6c0-0.5,0.4-0.8,1-0.8c0.1,0,0.3,0,0.3,0v3.8
	c-1.9,0-3.4,1.1-3.4,2.9c0,1.7,1.5,2.5,3,2.4V18c-1-0.1-1.5-0.6-1.5-1.3c0-0.8,0.6-1.2,1.3-1.2s1.2,0.5,1.7,1l2.6-2.9l-0.1-0.1
	l-0.7,0.8c-1-0.9-1.6-1.3-2.8-1.5V4.1l7.3,12.7h0.4V4.1C45.2,4,46.4,3,46.4,1.4 M25.6,11.8V7.3l2,3.1L25.6,11.8z M26.2,16.7l3.9-3.2
	L30,13.4L28,15l-2.4-1.9V12l4.1-2.9l-2.1-3.2l-4.5,2.5v5.9L22.2,15l0.1,0.1l0.8-0.7L26.2,16.7z M21.6,7.3l-0.7,0.6L18.7,6l-2.5,1.9
	V0.4l-3.4,2.3c0.4,0.1,0.9,0.3,0.9,1.2v10.3l-1.2,0.9l0.1,0.1l0.6-0.4l2,1.9l2.7-1.8l-0.1-0.1l-0.7,0.5l-0.9-0.9V8.1l0.6-0.5
	l1.5,1.3v5.4c0,3.4-0.8,4.1-2.3,4.7v0.1c2.6,0.1,4.9-0.8,4.9-5.1V8.1l0.8-0.6L21.6,7.3z M4.6,12.3l-1.1,0.5c-0.6-0.8-1.1-2-1.1-3.6
	c0-0.6,0.1-1.5,0.3-2.1l1.9-0.8V12.3z M12.3,2.2c0-1.8-1.7-2.3-3.1-2.2v0.2c0.8,0.1,1.5,0.4,1.5,1c0,0.4-0.3,0.9-1.1,0.9
	C8.9,2,7.8,1.6,6.8,1.3C5.6,0.9,4.6,0.5,3.7,0.5c-1.8,0-3.1,1.3-3.1,2.9c0,1.3,1,1.8,1.4,1.9V5.2C1.7,5.1,1.6,5,1.6,4.4
	c0-0.5,0.3-1.1,1.2-1.1c0.8,0,1.9,0.4,3.3,0.8c1.2,0.3,2.5,0.7,3.3,0.8v2.9L8,8.8L9.4,10v3.9c-0.7,0.4-1.5,0.5-2.2,0.5
	c-1.3,0-2.5-0.4-3.5-1.5l3.7-1.8V5L2.8,7c0.5-1.2,1.4-2.1,2.3-2.7V4.2C2.5,5,0,7.5,0,10.5c0,3.7,2.9,6.4,6.3,6.4
	c3.7,0,5.8-2.9,5.8-5.9H12c-0.5,1.2-1.4,2.3-2.4,2.8V10L11,8.8L9.6,7.7V4.8C10.9,4.8,12.3,3.9,12.3,2.2"/>
</svg>
